<?xml version="1.0" encoding="iso-8859-1"?>
<!-- Generator: Adobe Illustrator 18.0.0, SVG Export Plug-In . SVG Version: 6.00 Build 0)  -->
<!DOCTYPE svg PUBLIC "-//W3C//DTD SVG 1.1//EN" "http://www.w3.org/Graphics/SVG/1.1/DTD/svg11.dtd">
<svg version="1.1" fill="#de8430" id="Capa_1" xmlns="http://www.w3.org/2000/svg" xmlns:xlink="http://www.w3.org/1999/xlink" x="0px" y="0px"
	 viewBox="0 0 436.317 436.317" style="enable-background:new 0 0 436.317 436.317;" xml:space="preserve">
<g>
	<path d="M297.37,39.239l13.268-3.48c0.56,0.719,1.152,1.421,1.813,2.081c4.187,4.187,9.754,6.493,15.675,6.493
		s11.488-2.306,15.675-6.493c8.643-8.643,8.643-22.706,0-31.348C339.614,2.306,334.046,0,328.125,0s-11.488,2.306-15.675,6.493
		c-4.144,4.144-6.278,9.534-6.449,14.975l-12.438,3.262c-10.2,2.676-17.647,11.026-19.296,21.241
		c-14.592-3.364-26.323-4.952-31.951-5.595c-0.235-13.12-10.979-23.722-24.159-23.722S194.235,27.256,194,40.376
		c-5.628,0.643-17.359,2.231-31.952,5.595c-1.647-10.216-9.094-18.565-19.297-21.241l-12.437-3.262
		c-0.17-5.441-2.305-10.832-6.449-14.975C119.679,2.306,114.112,0,108.191,0c-5.92,0-11.487,2.306-15.674,6.493
		c-8.643,8.643-8.643,22.705,0,31.348c4.187,4.187,9.754,6.493,15.674,6.493c5.921,0,11.488-2.306,15.675-6.493
		c0.661-0.661,1.253-1.362,1.813-2.082l13.268,3.48c4.803,1.26,8.198,5.438,8.447,10.398l0.005,0.098
		c-2.008,0.571-4.045,1.175-6.104,1.812l-0.803-2.089c-1.487-3.866-5.828-5.796-9.692-4.308c-3.866,1.487-5.795,5.826-4.308,9.692
		l0.594,1.544c-6.962,2.604-14.007,5.601-20.915,9.055c-3.704,1.853-5.206,6.357-3.354,10.062c1.313,2.628,3.963,4.148,6.714,4.148
		c1.127,0,2.271-0.255,3.349-0.793c6.435-3.218,13.042-6.018,19.598-8.455l0.682,1.772c1.146,2.981,3.988,4.81,7.002,4.81
		c0.895,0,1.806-0.161,2.69-0.502c3.866-1.487,5.795-5.826,4.308-9.692l-0.453-1.177c20.255-6.148,38.298-8.963,46.861-10.06
		c-2.179,1.814-4.15,3.867-5.885,6.112c-12.708,4.281-21.353,16.153-21.353,29.817v42.5h-2.837c-4.143,0-7.5,3.358-7.5,7.5
		s3.357,7.5,7.5,7.5h2.837v58.388c-11.9,0.8-21.34,10.732-21.34,22.832v49.78h-18.951c-4.143,0-7.5,3.358-7.5,7.5s3.357,7.5,7.5,7.5
		h18.951v27.78c0,12.622,10.269,22.89,22.89,22.89h22.446v62.83c0,15.347,12.486,27.833,27.834,27.833
		c15.347,0,27.833-12.486,27.833-27.833v-62.83h22.45c12.621,0,22.89-10.269,22.89-22.89v-27.78h18.951c4.143,0,7.5-3.358,7.5-7.5
		s-3.357-7.5-7.5-7.5h-18.951v-49.78c0-12.098-9.436-22.028-21.333-22.831v-58.388h2.826c4.143,0,7.5-3.358,7.5-7.5
		s-3.357-7.5-7.5-7.5h-2.826v-42.5c0-13.663-8.65-25.535-21.363-29.817c-1.736-2.247-3.709-4.302-5.89-6.117
		c8.555,1.092,26.593,3.897,46.869,10.057l-0.456,1.185c-1.487,3.866,0.441,8.206,4.308,9.692c0.886,0.34,1.796,0.502,2.69,0.502
		c3.014,0,5.855-1.829,7.002-4.81l0.683-1.776c6.55,2.438,13.156,5.239,19.595,8.459c1.077,0.538,2.222,0.793,3.349,0.793
		c2.751,0,5.4-1.52,6.714-4.148c1.853-3.705,0.351-8.21-3.354-10.062c-6.908-3.454-13.954-6.452-20.915-9.056l0.594-1.544
		c1.487-3.866-0.441-8.206-4.308-9.692c-3.87-1.487-8.206,0.443-9.692,4.308l-0.803,2.088c-2.059-0.636-4.096-1.24-6.104-1.812
		l0.005-0.098C289.172,44.678,292.567,40.499,297.37,39.239z M323.058,17.099c1.354-1.354,3.153-2.099,5.067-2.099
		s3.714,0.746,5.067,2.099c2.795,2.794,2.795,7.341,0,10.135c-1.354,1.354-3.153,2.099-5.067,2.099s-3.714-0.746-5.067-2.099
		C320.263,24.44,320.263,19.893,323.058,17.099z M113.258,27.234c-1.354,1.354-3.152,2.099-5.067,2.099
		c-1.914,0-3.713-0.746-5.066-2.099c-2.795-2.794-2.795-7.341,0-10.135c1.354-1.354,3.152-2.099,5.066-2.099
		c1.915,0,3.714,0.746,5.067,2.099C116.053,19.893,116.053,24.44,113.258,27.234z M245.992,233.314h5.604v76.337h-5.604V233.314z
		 M230.999,201.135c-3.845-2.008-8.21-3.151-12.84-3.151c-4.626,0-8.988,1.141-12.83,3.146v-52.146h25.67V201.135z M190.325,309.651
		h-5.6v-76.337h5.6V309.651z M205.329,133.984v-12.54c4.016,1.424,8.333,2.207,12.83,2.207c4.501,0,8.821-0.784,12.84-2.21v12.543
		H205.329z M241.659,85.151c0,12.958-10.542,23.5-23.5,23.5s-23.5-10.542-23.5-23.5s10.542-23.5,23.5-23.5
		S241.659,72.193,241.659,85.151z M218.159,31.654c5.057,0,9.17,4.109,9.17,9.16v6.949c-2.941-0.721-6.01-1.112-9.17-1.112
		s-6.229,0.391-9.17,1.112v-6.949C208.989,35.763,213.102,31.654,218.159,31.654z M181.329,96.362c1.775,5.82,4.899,11.055,9,15.35
		v22.272h-9V96.362z M190.329,148.984v69.33h-9v-69.33H190.329z M167.878,330.654c-4.351,0-7.89-3.54-7.89-7.89v-35.222
		c0-0.02,0.003-0.039,0.003-0.058s-0.003-0.038-0.003-0.058v-57.222c0-3.82,2.729-7.013,6.34-7.735v3.345
		c0,2.626,1.352,4.934,3.396,6.274v85.397c0,4.142,3.357,7.5,7.5,7.5c0.772,0,1.518-0.117,2.219-0.333h10.881v6.003H167.878z
		 M230.992,408.484c0,7.076-5.757,12.833-12.833,12.833c-7.077,0-12.834-5.757-12.834-12.833V225.891
		c0-0.026,0.004-0.051,0.004-0.077v-0.074c0.042-7.04,5.779-12.756,12.83-12.756c7.076,0,12.833,5.757,12.833,12.833V408.484z
		 M276.332,230.204v57.222c0,0.02-0.003,0.039-0.003,0.058s0.003,0.038,0.003,0.058v35.222c0,4.351-3.539,7.89-7.89,7.89h-22.45
		v-6.003h10.885c0.701,0.217,1.446,0.333,2.219,0.333c4.143,0,7.5-3.358,7.5-7.5v-85.392c2.048-1.339,3.403-3.649,3.403-6.278
		v-3.344C273.606,223.195,276.332,226.386,276.332,230.204z M254.999,218.314h-9v-69.33h9V218.314z M245.999,133.984v-22.282
		c4.104-4.302,7.228-9.544,9-15.374v37.656H245.999z"/>
	<path d="M210.801,172.948c0.669,3.193,3.329,5.654,6.583,5.997c3.047,0.321,6.068-1.334,7.45-4.059
		c1.402-2.763,0.956-6.202-1.157-8.483c-2.131-2.3-5.531-3.03-8.419-1.827C211.987,165.939,210.153,169.484,210.801,172.948
		C210.902,173.428,210.711,172.468,210.801,172.948z"/>
</g>
<g>
</g>
<g>
</g>
<g>
</g>
<g>
</g>
<g>
</g>
<g>
</g>
<g>
</g>
<g>
</g>
<g>
</g>
<g>
</g>
<g>
</g>
<g>
</g>
<g>
</g>
<g>
</g>
<g>
</g>
</svg>
